<svg width="382" height="375" viewBox="0 0 382 375" fill="none" xmlns="http://www.w3.org/2000/svg">
<path d="M18.9815 349.277L8.78297 359.455V373.63H0.807861V318.824H8.78297V349.441L39.087 318.824H48.1747L24.334 343.487L49.6844 373.63H40.3452L18.9815 349.277Z" fill="white"/>
<path d="M106.137 318.824V373.63H99.5894L66.0972 332.773V373.63H58.1221V318.824H64.6697L98.1641 359.681V318.824H106.137Z" fill="white"/>
<path d="M139.253 367.367L142.214 361.268C146.369 364.956 153.462 367.614 160.638 367.614C170.292 367.614 174.426 363.926 174.426 359.166C174.426 345.774 140.617 354.242 140.617 333.886C140.617 325.438 147.313 318.227 161.981 318.227C168.529 318.227 175.288 319.958 179.925 323.089L177.302 329.353C172.433 326.304 166.935 324.882 162.002 324.882C152.518 324.882 148.447 328.796 148.447 333.577C148.447 346.969 182.256 338.583 182.256 358.713C182.256 367.099 175.391 374.289 160.638 374.289C152.098 374.289 143.744 371.466 139.274 367.408L139.253 367.367Z" fill="white"/>
<path d="M188.844 352.882C188.844 340.52 198.183 331.743 210.86 331.743C223.538 331.743 232.79 340.52 232.79 352.882C232.79 365.245 223.536 374.104 210.86 374.104C198.185 374.104 188.844 365.265 188.844 352.882ZM225.045 352.882C225.045 344.043 218.981 338.316 210.86 338.316C202.74 338.316 196.589 344.023 196.589 352.882C196.589 361.742 202.738 367.511 210.86 367.511C218.983 367.511 225.045 361.721 225.045 352.882Z" fill="white"/>
<path d="M243.387 315.528H251.048V373.609H243.387V315.528Z" fill="white"/>
<path d="M303.052 332.134L284.564 373.63H276.755L258.246 332.134H266.221L280.723 365.409L295.56 332.134H303.052Z" fill="white"/>
<path d="M332.957 331.743V339.016C332.327 338.934 331.761 338.934 331.215 338.934C323.009 338.934 317.91 343.858 317.91 352.944V373.61H310.25V332.134H317.595V339.099C320.302 334.236 325.57 331.743 332.977 331.743L332.957 331.743Z" fill="white"/>
<path d="M338.058 352.882C338.058 340.52 347.395 331.743 360.072 331.743C372.75 331.743 382.002 340.52 382.002 352.882C382.002 365.245 372.748 374.104 360.072 374.104C347.397 374.104 338.058 365.265 338.058 352.882ZM374.257 352.882C374.257 344.043 368.193 338.316 360.072 338.316C351.951 338.316 345.801 344.023 345.801 352.882C345.801 361.742 351.928 367.511 360.072 367.511C368.216 367.511 374.257 361.721 374.257 352.882Z" fill="white"/>
<path d="M72.7786 99.4927L80.1636 106.788L191.262 215.861L309.745 99.4932H280.113L191.262 186.769L102.365 99.4932L72.7786 99.4927Z" fill="white"/>
<path d="M13.5142 99.4927L20.8996 106.788L50.5318 135.88L65.3477 121.334L43.1464 99.5374H13.5142V99.4927ZM339.423 99.4927L265.387 172.267L280.158 186.768L369.009 99.4927H339.423ZM80.1636 135.835L65.3473 150.381L94.9795 179.473L109.796 164.927L80.1636 135.835ZM124.612 179.474L109.796 194.019L191.262 274L235.71 230.362L226.376 221.199L220.894 215.861L191.262 244.952L124.613 179.518L124.612 179.474ZM250.526 186.768L235.756 201.27L250.572 215.816L265.388 201.27L258.003 194.019L250.572 186.768L250.526 186.768Z" fill="white"/>
<path d="M191.262 0.60675L144.911 46.0684L144.684 46.2906H145.137L157.598 58.5235L170.284 71.0237L191.036 91.397L199.554 99.7597L212.241 112.215L191.262 132.81L170.057 111.993L182.744 99.5374H157.371L144.684 111.993L191.262 157.676L237.387 111.948L224.927 99.715L212.241 87.2599L183.016 58.5686L170.33 46.113L191.308 25.5617L212.512 46.3799L199.826 58.8346H225.199L237.886 46.3799L191.262 0.60675Z" fill="white"/>
<path d="M212.24 112.214L199.553 124.669L212.15 137.035L224.927 124.402L212.24 112.258L212.24 112.214Z" fill="white"/>
<path d="M170.284 46.0684L183.061 33.5686L170.284 21.2023L157.598 33.6574L170.239 46.1126L170.284 46.0684Z" fill="white"/>
</svg>
